<?xml version="1.0" encoding="UTF-8"?> <svg xmlns="http://www.w3.org/2000/svg" version="1.1" id="Layer_1" x="0" y="0" viewBox="0 0 999.5 210.1" style="enable-background:new 0 0 999.5 210.1" xml:space="preserve"> <style> .st0{fill:#1796ff} </style> <path d="M552.4 56 479 150.6h76V166h-99.6v-12.5l73.1-95.1h-69.4V43.5h93.3V56zM696.9 101.1v3.9c0 1.5-.1 2.9-.3 4.4H596.3c.1 5.9 1.4 11.7 3.6 17.1 2.2 5.2 5.3 10 9.3 14 4 4 8.8 7.2 14 9.4 5.5 2.4 11.4 3.5 17.3 3.5 9.1 0 17-2.1 23.7-6.3s11.7-9.1 15.1-14.6l13.2 10.4c-7.2 9.1-15.2 15.7-23.9 19.6-8.8 4-18.4 6-28 6-8.6.1-17-1.5-25-4.8-7.4-3-14.2-7.6-19.8-13.3-5.6-5.8-10.1-12.7-13.1-20.2-3.2-8.1-4.9-16.7-4.8-25.4-.1-8.7 1.5-17.3 4.7-25.3 2.9-7.5 7.4-14.4 13-20.2 5.5-5.7 12.1-10.2 19.4-13.3 7.6-3.2 15.8-4.9 24.1-4.8 9.5 0 17.8 1.6 25.1 4.8 6.9 3 13.1 7.4 18.1 12.9 4.9 5.5 8.6 12 11 19 2.4 7.5 3.6 15.3 3.6 23.2zM679 95.4c-.5-11.4-4.2-20.8-11-28.3s-16.5-11.3-29.1-11.3c-5.6-.1-11.2 1.1-16.3 3.2-4.9 2.1-9.4 5.1-13.2 8.8-3.7 3.6-6.8 7.9-9 12.7-2.2 4.7-3.5 9.7-3.9 14.9H679zM955.7 105c.1 8.7-1.5 17.3-4.8 25.4-6.1 15.4-18.3 27.5-33.7 33.5-8.3 3.3-17.2 4.9-26.1 4.8-8.8.1-17.6-1.5-25.9-4.8-15.4-6-27.6-18.1-33.8-33.5-3.2-8.1-4.9-16.7-4.8-25.4-.1-8.7 1.5-17.3 4.8-25.3 6.1-15.4 18.4-27.5 33.8-33.5 8.2-3.2 17-4.9 25.9-4.8 8.9-.1 17.8 1.5 26.1 4.8 15.4 6 27.6 18.1 33.7 33.5 3.2 8 4.9 16.6 4.8 25.3zm-18.7 0c0-6.5-1.1-12.9-3.2-19-2-5.7-5.1-11-9.2-15.5s-9-8-14.5-10.5c-6-2.7-12.6-4-19.1-3.9-6.5-.1-13 1.2-19 3.9-5.5 2.5-10.3 6-14.4 10.5-4 4.5-7.2 9.8-9.2 15.6-4.3 12.3-4.3 25.7 0 38 2 5.7 5.1 11 9.2 15.5 4 4.4 8.9 8 14.4 10.3 6 2.6 12.5 3.8 19 3.7 6.6.1 13.1-1.2 19.1-3.7 5.5-2.4 10.4-5.9 14.5-10.3 4-4.5 7.2-9.8 9.2-15.5 2.2-6.2 3.3-12.6 3.2-19.1zM389.8 41.5c-7.1-.1-14.1 2-19.9 6-5.7 3.9-10.3 9.2-13.3 15.4h-.4c0-9.8-7.9-19.2-17.7-19.2l-21.2-.1v122.6h40.4v-61.4c.1-2.9.6-5.8 1.5-8.6 1-3.3 2.6-6.4 4.8-9.1 2.4-3 5.5-5.4 8.9-7.1 3.7-2 8.3-2.9 13.7-2.9 1.6 0 35.2-.3 37.1.3l1.7-35.7c-1.2-.6-33.9-.2-35.6-.2zM789.8 41.6c-8.4-.1-16.6 2.2-23.6 6.7-6.8 4.2-12.3 10.3-15.8 17.5h-.5c0-2.6-.1-7.2-.3-11.2v1.3c-.3-6.2-5.3-12.3-11.5-12.3H733v122.6h17.6v-61.4c0-8.2 1-15.2 3-21.1 1.7-5.3 4.4-10.1 7.9-14.4 3.1-3.6 7-6.5 11.4-8.2 4.4-1.7 9-2.6 13.7-2.6 2.4 0 31.1-.1 32.2.3l2.4-17.1c-1.9-.7-29.1-.1-31.4-.1z"></path> <path class="st0" d="M194.4 174.4v-26.8c0-20.5-16.6-37-37.1-37.1h-26.8l63.9 63.9zM110.4 118.8l-64.1 64.1h64.1zM101.9 110.6H37.8v64.1zM194.3 62.1l.1-27.2L130.3 99h26.9c20.4-.1 36.9-16.6 37.1-36.9zM122.1 182.9h64.1l-64.1-64.1zM122.1 90.7l64.1-64.1h-64.1zM101.9 99 37.8 34.8V99zM46.6 26.6l63.8 63.8V26.6z"></path> </svg> 